<svg width="19" height="19" viewBox="0 0 19 19" fill="none" xmlns="http://www.w3.org/2000/svg">
<path d="M13.831 6.40641L10.7374 9.5L13.831 12.5936C14.1713 12.9339 14.1713 13.4907 13.831 13.831C13.4907 14.1713 12.9339 14.1713 12.5936 13.831L9.50001 10.7374L6.40642 13.831C6.06612 14.1713 5.50928 14.1713 5.16898 13.831C4.82869 13.4907 4.82869 12.9339 5.16898 12.5936L8.26257 9.5L5.16898 6.40641C4.82868 6.06611 4.82868 5.50927 5.16898 5.16897C5.50927 4.82868 6.06612 4.82868 6.40642 5.16897L9.50001 8.26256L12.5936 5.16897C12.9339 4.82868 13.4907 4.82868 13.831 5.16897C14.1713 5.50927 14.1713 6.06611 13.831 6.40641Z" fill="#2C7EDF"/>
</svg>
