<svg width="11" height="11" viewBox="0 0 11 11" fill="none" xmlns="http://www.w3.org/2000/svg">
<path d="M9.83098 2.40641L6.73739 5.5L9.83098 8.59359C10.1713 8.93389 10.1713 9.49074 9.83098 9.83103C9.49068 10.1713 8.93384 10.1713 8.59354 9.83103L5.49995 6.73744L2.40636 9.83103C2.06606 10.1713 1.50922 10.1713 1.16892 9.83103C0.828625 9.49073 0.828625 8.93389 1.16892 8.59359L4.26251 5.5L1.16892 2.40641C0.828624 2.06611 0.828624 1.50927 1.16892 1.16897C1.50921 0.828677 2.06606 0.828677 2.40636 1.16897L5.49995 4.26256L8.59354 1.16897C8.93383 0.828678 9.49068 0.828677 9.83098 1.16897C10.1713 1.50927 10.1713 2.06611 9.83098 2.40641Z" fill="black"/>
</svg>
